<svg xmlns="http://www.w3.org/2000/svg" xmlns:xlink="http://www.w3.org/1999/xlink" id="Layer_1" x="0px" y="0px" viewBox="0 0 120 120" style="enable-background:new 0 0 120 120;" xml:space="preserve">
<style type="text/css">
	.st0{fill:#FFFFFF;}
	.st1{fill:url(#SVGID_1_);}
</style>
<circle class="st0" cx="60" cy="62" r="40.3"></circle>
<g>
	<g>
		
			<linearGradient id="SVGID_1_" gradientUnits="userSpaceOnUse" x1="60" y1="11338.2998" x2="60" y2="11218.2998" gradientTransform="matrix(1 0 0 1 0 -11217.999)">
			<stop offset="0" style="stop-color:#A10FFF"></stop>
			<stop offset="1" style="stop-color:#541FFF"></stop>
		</linearGradient>
		<path class="st1" d="M60,0.3c-33.1,0-60,26.9-60,60s26.9,60,60,60s60-26.9,60-60S93.1,0.3,60,0.3z M83.8,62.3L48.9,84.8    c-0.4,0.2-0.9,0.4-1.4,0.4c-0.4,0-0.9-0.2-1.3-0.4c-0.7-0.4-1.3-1.3-1.3-2.1v-45c0-0.9,0.5-1.8,1.3-2.1s1.8-0.4,2.5,0.2l34.9,22.6    c0.7,0.5,1.1,1.3,1.1,2.1C85.1,61,84.5,61.9,83.8,62.3z"></path>
	</g>
</g>
</svg>